<svg id="Vrstva_1" data-name="Vrstva 1" xmlns="http://www.w3.org/2000/svg" viewBox="0 0 73.42 73.09"><defs><style>.cls-1{fill:#5a7aae;}.cls-2{fill:#c5ac87;}</style></defs><title>Logo bude živo</title><path class="cls-1" d="M46.9,55A1.87,1.87,0,0,1,45,56.84H14.88A1.87,1.87,0,0,1,13,55V24.83A1.87,1.87,0,0,1,14.88,23H37.74l6.43-8.91H14.88A10.79,10.79,0,0,0,4.11,24.83V55A10.78,10.78,0,0,0,14.88,65.74H45A10.78,10.78,0,0,0,55.8,55V31.55L46.9,41.6Z"/><polygon class="cls-2" points="30.01 43.07 26.28 38.69 18.58 38.69 18.58 38.85 26.7 46.88 33.3 46.88 41.41 38.85 46.9 32.65 55.6 22.83 69.31 7.35 56.32 7.35 50.41 15.55 45.06 22.96 33.71 38.69 30.01 43.07"/></svg>